# xmcd CD database file
#
# Track frame offsets:
#	150
#	15152
#	31633
#	49221
#	66357
#	81044
#	97641
#	120362
#	137108
#	155652
#	176230
#	189835
#
# Disc length: 3011 seconds
#
# Revision: 1
# Processed by: cddbd v1.4PL0 Copyright (c) Steve Scherf et al.
# Submitted via: NotifyCDPlayer 1.60beta14
#
DISCID=890bc10c
DTITLE=Matchbox Twenty - More Than You Think You Are
DYEAR=1900
DGENRE=
TTITLE0=Feel
TTITLE1=Disease
TTITLE2=Bright Lights
TTITLE3=Unwell
TTITLE4=Cold
TTITLE5=All I Need
TTITLE6=Hand Me Down
TTITLE7=Could I Be You
TTITLE8=Downfall
TTITLE9=Soul
TTITLE10=You're So Real
TTITLE11=The Difference
EXTD=
EXTT0=
EXTT1=
EXTT2=
EXTT3=
EXTT4=
EXTT5=
EXTT6=
EXTT7=
EXTT8=
EXTT9=
EXTT10=
EXTT11=
PLAYORDER=
